<svg width="22" height="22" viewBox="0 0 22 22" fill="none" xmlns="http://www.w3.org/2000/svg">
<path d="M11 5.90332V8.95582" stroke="white" stroke-width="1.5" stroke-miterlimit="10" stroke-linecap="round"/>
<path d="M11.018 1.8335C7.64466 1.8335 4.913 4.56516 4.913 7.9385V9.8635C4.913 10.4868 4.65633 11.4218 4.3355 11.9535L3.17133 13.8968C2.45633 15.0977 2.95133 16.436 4.27133 16.876C8.653 18.3335 13.3922 18.3335 17.7738 16.876C19.0113 16.4635 19.543 15.0152 18.8738 13.8968L17.7097 11.9535C17.3888 11.4218 17.1322 10.4777 17.1322 9.8635V7.9385C17.123 4.5835 14.373 1.8335 11.018 1.8335Z" stroke="white" stroke-width="1.5" stroke-miterlimit="10" stroke-linecap="round"/>
<path d="M14.0523 17.2515C14.0523 18.929 12.6773 20.304 10.9998 20.304C10.1656 20.304 9.3956 19.9556 8.8456 19.4056C8.2956 18.8556 7.94727 18.0856 7.94727 17.2515" stroke="white" stroke-width="1.5" stroke-miterlimit="10"/>
</svg>
